<svg width="1200" height="900" viewBox="0 0 1200 900" xmlns="http://www.w3.org/2000/svg" role="img" aria-labelledby="title desc">
  <title id="title">Handyman crew collaborating</title>
  <desc id="desc">Illustration of a handyman crew reviewing a work order with dispatch callouts.</desc>
  <defs>
    <linearGradient id="bg2" x1="0%" y1="0%" x2="100%" y2="100%">
      <stop offset="0%" stop-color="#0b1223" />
      <stop offset="50%" stop-color="#0f172a" />
      <stop offset="100%" stop-color="#0a172c" />
    </linearGradient>
    <linearGradient id="card" x1="0%" y1="0%" x2="0%" y2="100%">
      <stop offset="0%" stop-color="#1f2937" />
      <stop offset="100%" stop-color="#0f172a" />
    </linearGradient>
    <linearGradient id="vest" x1="0%" y1="0%" x2="0%" y2="100%">
      <stop offset="0%" stop-color="#22c55e" />
      <stop offset="100%" stop-color="#16a34a" />
    </linearGradient>
    <linearGradient id="clipboard" x1="0%" y1="0%" x2="100%" y2="0%">
      <stop offset="0%" stop-color="#38bdf8" />
      <stop offset="100%" stop-color="#0ea5e9" />
    </linearGradient>
  </defs>
  <rect width="1200" height="900" fill="url(#bg2)" />
  <circle cx="300" cy="180" r="140" fill="#0ea5e9" opacity="0.28" />
  <circle cx="980" cy="200" r="150" fill="#fb7185" opacity="0.18" />
  <rect x="120" y="640" width="960" height="120" rx="20" fill="#0b1628" opacity="0.85" />
  <rect x="200" y="620" width="800" height="80" rx="20" fill="#111827" opacity="0.8" />
  <rect x="340" y="500" width="520" height="120" rx="32" fill="url(#card)" stroke="#1e293b" />
  <rect x="360" y="480" width="120" height="24" rx="10" fill="#38bdf8" opacity="0.5" />
  <rect x="540" y="470" width="260" height="30" rx="12" fill="#22c55e" opacity="0.4" />
  <rect x="600" y="496" width="40" height="70" rx="12" fill="#fef9c3" opacity="0.8" />
  <rect x="670" y="510" width="28" height="54" rx="10" fill="#fef3c7" opacity="0.9" />
  <rect x="450" y="514" width="22" height="48" rx="10" fill="#e2e8f0" opacity="0.8" />
  <rect x="520" y="512" width="16" height="50" rx="8" fill="#cbd5e1" opacity="0.8" />
  <rect x="400" y="540" width="420" height="18" rx="8" fill="#0ea5e9" opacity="0.35" />
  <rect x="420" y="566" width="270" height="14" rx="7" fill="#38bdf8" opacity="0.25" />
  <rect x="440" y="588" width="210" height="10" rx="5" fill="#38bdf8" opacity="0.2" />
  <rect x="300" y="360" width="120" height="240" rx="46" fill="#1e293b" opacity="0.6" />
  <rect x="780" y="360" width="120" height="240" rx="46" fill="#1e293b" opacity="0.6" />
  <rect x="340" y="340" width="120" height="210" rx="48" fill="#fef9c3" />
  <rect x="740" y="340" width="140" height="230" rx="54" fill="#e2e8f0" />
  <rect x="360" y="324" width="80" height="50" rx="24" fill="#d1d5db" />
  <rect x="765" y="318" width="90" height="56" rx="26" fill="#cbd5e1" />
  <rect x="365" y="316" width="70" height="20" rx="8" fill="#0f172a" opacity="0.7" />
  <rect x="775" y="310" width="70" height="20" rx="8" fill="#0f172a" opacity="0.7" />
  <circle cx="400" cy="312" r="34" fill="#d6d3d1" />
  <circle cx="810" cy="304" r="36" fill="#e5e7eb" />
  <rect x="380" y="280" width="40" height="24" rx="10" fill="#0f172a" opacity="0.6" />
  <rect x="790" y="270" width="44" height="26" rx="12" fill="#0f172a" opacity="0.6" />
  <rect x="380" y="296" width="12" height="12" rx="6" fill="#f8fafc" />
  <rect x="410" y="296" width="12" height="12" rx="6" fill="#f8fafc" />
  <rect x="790" y="286" width="12" height="12" rx="6" fill="#f8fafc" />
  <rect x="820" y="286" width="12" height="12" rx="6" fill="#f8fafc" />
  <rect x="374" y="330" width="54" height="16" rx="8" fill="#0f172a" opacity="0.8" />
  <rect x="782" y="320" width="56" height="16" rx="8" fill="#0f172a" opacity="0.8" />
  <rect x="332" y="410" width="110" height="170" rx="38" fill="url(#vest)" />
  <rect x="748" y="406" width="142" height="174" rx="44" fill="#0ea5e9" opacity="0.75" />
  <rect x="364" y="392" width="42" height="44" rx="10" fill="#22c55e" opacity="0.8" />
  <rect x="810" y="392" width="42" height="44" rx="10" fill="#38bdf8" opacity="0.8" />
  <rect x="410" y="412" width="30" height="80" rx="14" fill="#16a34a" />
  <rect x="750" y="412" width="30" height="72" rx="14" fill="#22d3ee" />
  <rect x="464" y="420" width="80" height="190" rx="38" fill="#0ea5e9" />
  <rect x="636" y="420" width="80" height="190" rx="38" fill="#22d3ee" />
  <rect x="484" y="402" width="42" height="60" rx="20" fill="#0b1223" />
  <rect x="656" y="402" width="42" height="60" rx="20" fill="#0b1223" />
  <circle cx="505" cy="396" r="30" fill="#e2e8f0" />
  <circle cx="677" cy="394" r="30" fill="#e2e8f0" />
  <rect x="492" y="374" width="28" height="16" rx="8" fill="#0f172a" opacity="0.75" />
  <rect x="664" y="370" width="28" height="16" rx="8" fill="#0f172a" opacity="0.75" />
  <rect x="470" y="460" width="110" height="170" rx="32" fill="#111827" opacity="0.45" />
  <rect x="640" y="460" width="110" height="170" rx="32" fill="#111827" opacity="0.45" />
  <rect x="516" y="464" width="80" height="18" rx="8" fill="#22d3ee" opacity="0.6" />
  <rect x="686" y="464" width="80" height="18" rx="8" fill="#22d3ee" opacity="0.6" />
  <rect x="506" y="502" width="100" height="60" rx="22" fill="#0f172a" opacity="0.7" />
  <rect x="676" y="502" width="100" height="60" rx="22" fill="#0f172a" opacity="0.7" />
  <rect x="510" y="520" width="26" height="34" rx="8" fill="#cbd5e1" />
  <rect x="704" y="520" width="26" height="34" rx="8" fill="#cbd5e1" />
  <rect x="438" y="610" width="30" height="70" rx="12" fill="#22c55e" />
  <rect x="728" y="610" width="30" height="70" rx="12" fill="#22d3ee" />
  <rect x="430" y="670" width="44" height="26" rx="12" fill="#e5e7eb" />
  <rect x="720" y="670" width="44" height="26" rx="12" fill="#e5e7eb" />
  <circle cx="462" cy="730" r="30" fill="#0f172a" stroke="#38bdf8" stroke-width="8" />
  <circle cx="752" cy="730" r="30" fill="#0f172a" stroke="#22d3ee" stroke-width="8" />
  <rect x="552" y="316" width="110" height="180" rx="40" fill="#f1f5f9" />
  <rect x="552" y="304" width="110" height="60" rx="28" fill="#cbd5e1" />
  <rect x="584" y="300" width="46" height="26" rx="12" fill="#0f172a" opacity="0.7" />
  <rect x="568" y="292" width="16" height="22" rx="8" fill="#f8fafc" />
  <rect x="626" y="292" width="16" height="22" rx="8" fill="#f8fafc" />
  <rect x="590" y="342" width="34" height="14" rx="7" fill="#0f172a" opacity="0.7" />
  <path d="M560 360 Q610 384 662 360" stroke="#0b1223" stroke-width="12" fill="none" stroke-linecap="round" />
  <rect x="548" y="380" width="120" height="130" rx="44" fill="#22c55e" opacity="0.12" stroke="#22c55e" stroke-width="2" />
  <rect x="570" y="410" width="76" height="74" rx="16" fill="#0b1628" />
  <rect x="586" y="422" width="44" height="52" rx="10" fill="#0ea5e9" />
  <rect x="604" y="390" width="10" height="20" rx="4" fill="#22c55e" />
  <rect x="580" y="392" width="12" height="12" rx="6" fill="#fef9c3" />
  <rect x="618" y="392" width="12" height="12" rx="6" fill="#fef9c3" />
  <rect x="588" y="502" width="16" height="44" rx="6" fill="#15803d" />
  <rect x="620" y="502" width="16" height="44" rx="6" fill="#15803d" />
  <rect x="564" y="528" width="84" height="16" rx="8" fill="#34d399" opacity="0.6" />
  <rect x="286" y="238" width="48" height="120" rx="18" fill="#22d3ee" opacity="0.4" />
  <rect x="874" y="234" width="40" height="124" rx="18" fill="#f472b6" opacity="0.35" />
  <rect x="870" y="432" width="80" height="34" rx="16" fill="#22c55e" opacity="0.7" />
  <rect x="240" y="420" width="70" height="40" rx="16" fill="#38bdf8" opacity="0.7" />
  <rect x="940" y="450" width="60" height="24" rx="10" fill="#fde68a" opacity="0.9" />
  <rect x="230" y="468" width="60" height="24" rx="10" fill="#c4b5fd" opacity="0.9" />
  <rect x="900" y="526" width="140" height="60" rx="20" fill="#0ea5e9" opacity="0.2" stroke="#38bdf8" />
  <rect x="170" y="516" width="130" height="60" rx="18" fill="#22c55e" opacity="0.2" stroke="#16a34a" />
  <rect x="890" y="560" width="150" height="18" rx="8" fill="#0ea5e9" opacity="0.2" />
  <rect x="160" y="558" width="150" height="18" rx="8" fill="#22c55e" opacity="0.2" />
  <rect x="876" y="178" width="90" height="32" rx="14" fill="#22c55e" opacity="0.8" />
  <rect x="260" y="168" width="80" height="32" rx="14" fill="#38bdf8" opacity="0.8" />
  <rect x="444" y="220" width="310" height="80" rx="24" fill="#0b1223" opacity="0.7" />
  <rect x="460" y="234" width="180" height="20" rx="8" fill="#fef3c7" />
  <rect x="660" y="234" width="70" height="20" rx="8" fill="#e2e8f0" />
  <rect x="470" y="262" width="144" height="12" rx="6" fill="#cbd5e1" opacity="0.8" />
  <rect x="626" y="262" width="92" height="12" rx="6" fill="#cbd5e1" opacity="0.8" />
  <rect x="472" y="252" width="14" height="14" rx="7" fill="#22c55e" />
  <rect x="494" y="252" width="14" height="14" rx="7" fill="#38bdf8" />
  <rect x="516" y="252" width="14" height="14" rx="7" fill="#f472b6" />
  <rect x="538" y="252" width="14" height="14" rx="7" fill="#facc15" />
  <rect x="422" y="200" width="24" height="38" rx="12" fill="#f8fafc" opacity="0.85" />
  <rect x="752" y="196" width="28" height="42" rx="12" fill="#f8fafc" opacity="0.85" />
  <rect x="520" y="150" width="170" height="40" rx="18" fill="#0ea5e9" opacity="0.5" />
  <rect x="540" y="140" width="130" height="22" rx="12" fill="#22c55e" opacity="0.6" />
  <rect x="556" y="126" width="98" height="18" rx="10" fill="#f97316" opacity="0.6" />
</svg>
