<svg width="1200" height="900" viewBox="0 0 1200 900" xmlns="http://www.w3.org/2000/svg" role="img" aria-labelledby="title desc">
  <title id="title">Handyman preparing a toolkit</title>
  <desc id="desc">Illustration of a handyman arranging tools with warm gradients and geometric shapes.</desc>
  <defs>
    <linearGradient id="bg" x1="0%" y1="0%" x2="100%" y2="100%">
      <stop stop-color="#0f172a" offset="0%" />
      <stop stop-color="#0b1223" offset="40%" />
      <stop stop-color="#0a1d36" offset="100%" />
    </linearGradient>
    <linearGradient id="sun" x1="0%" y1="0%" x2="0%" y2="100%">
      <stop offset="0%" stop-color="#38bdf8" stop-opacity="0.95" />
      <stop offset="100%" stop-color="#0ea5e9" stop-opacity="0.35" />
    </linearGradient>
    <linearGradient id="bench" x1="0%" y1="0%" x2="100%" y2="0%">
      <stop offset="0%" stop-color="#1f2937" />
      <stop offset="100%" stop-color="#111827" />
    </linearGradient>
    <linearGradient id="toolbox" x1="0%" y1="0%" x2="0%" y2="100%">
      <stop offset="0%" stop-color="#f97316" />
      <stop offset="100%" stop-color="#ea580c" />
    </linearGradient>
    <linearGradient id="shirt" x1="0%" y1="0%" x2="0%" y2="100%">
      <stop offset="0%" stop-color="#22d3ee" />
      <stop offset="100%" stop-color="#0ea5e9" />
    </linearGradient>
  </defs>
  <rect width="1200" height="900" fill="url(#bg)" />
  <circle cx="180" cy="180" r="140" fill="url(#sun)" opacity="0.35" />
  <circle cx="1020" cy="160" r="110" fill="#f472b6" opacity="0.18" />
  <rect x="80" y="680" width="1040" height="90" rx="16" fill="#0b1628" opacity="0.9" />
  <rect x="160" y="620" width="880" height="60" rx="14" fill="url(#bench)" />
  <rect x="340" y="540" width="520" height="60" rx="12" fill="#0ea5e9" opacity="0.22" />
  <rect x="360" y="520" width="480" height="28" rx="10" fill="#38bdf8" opacity="0.16" />
  <rect x="470" y="410" width="230" height="160" rx="22" fill="url(#toolbox)" />
  <rect x="470" y="410" width="230" height="52" rx="18" fill="#fb923c" />
  <rect x="520" y="394" width="130" height="20" rx="10" fill="#fed7aa" opacity="0.9" />
  <rect x="510" y="442" width="40" height="120" rx="8" fill="#111827" opacity="0.55" />
  <rect x="640" y="442" width="40" height="120" rx="8" fill="#111827" opacity="0.55" />
  <rect x="510" y="490" width="170" height="18" rx="6" fill="#ffe4e6" opacity="0.6" />
  <rect x="540" y="458" width="110" height="12" rx="6" fill="#ffe4e6" opacity="0.6" />
  <rect x="480" y="442" width="18" height="120" rx="6" fill="#fef9c3" />
  <rect x="694" y="442" width="18" height="120" rx="6" fill="#fef9c3" />
  <circle cx="585" cy="430" r="10" fill="#0b1724" opacity="0.45" />
  <circle cx="655" cy="430" r="10" fill="#0b1724" opacity="0.45" />
  <rect x="700" y="270" width="60" height="120" rx="18" fill="#f1f5f9" opacity="0.5" />
  <rect x="430" y="270" width="60" height="120" rx="18" fill="#f1f5f9" opacity="0.5" />
  <rect x="510" y="240" width="180" height="200" rx="70" fill="url(#shirt)" />
  <rect x="540" y="220" width="120" height="80" rx="40" fill="#38bdf8" />
  <circle cx="600" cy="220" r="42" fill="#d6d3d1" />
  <rect x="562" y="200" width="76" height="44" rx="20" fill="#0f172a" opacity="0.7" />
  <rect x="556" y="196" width="12" height="24" rx="4" fill="#f1f5f9" opacity="0.8" />
  <rect x="632" y="196" width="12" height="24" rx="4" fill="#f1f5f9" opacity="0.8" />
  <rect x="586" y="248" width="28" height="12" rx="6" fill="#f8fafc" />
  <path d="M510 360 C540 380 660 380 690 360" stroke="#083344" stroke-width="14" stroke-linecap="round" fill="none" />
  <rect x="350" y="430" width="70" height="160" rx="32" fill="#e5e7eb" opacity="0.4" />
  <rect x="780" y="430" width="70" height="160" rx="32" fill="#e5e7eb" opacity="0.4" />
  <rect x="392" y="430" width="16" height="160" rx="8" fill="#0ea5e9" opacity="0.7" />
  <rect x="792" y="430" width="16" height="160" rx="8" fill="#0ea5e9" opacity="0.7" />
  <rect x="420" y="620" width="40" height="130" rx="16" fill="#1e293b" />
  <rect x="740" y="620" width="40" height="130" rx="16" fill="#1e293b" />
  <rect x="430" y="600" width="20" height="34" rx="8" fill="#cbd5e1" />
  <rect x="750" y="600" width="20" height="34" rx="8" fill="#cbd5e1" />
  <circle cx="475" cy="760" r="28" fill="#0f172a" stroke="#38bdf8" stroke-width="8" />
  <circle cx="765" cy="760" r="28" fill="#0f172a" stroke="#38bdf8" stroke-width="8" />
  <rect x="295" y="500" width="26" height="90" rx="10" fill="#fb7185" opacity="0.8" />
  <rect x="880" y="480" width="22" height="120" rx="10" fill="#38bdf8" opacity="0.8" />
  <rect x="260" y="510" width="26" height="140" rx="10" fill="#22c55e" opacity="0.7" />
  <rect x="910" y="470" width="22" height="160" rx="10" fill="#facc15" opacity="0.7" />
  <rect x="240" y="650" width="720" height="14" rx="7" fill="#0ea5e9" opacity="0.35" />
  <circle cx="270" cy="210" r="26" fill="#38bdf8" opacity="0.45" />
  <circle cx="930" cy="230" r="32" fill="#f472b6" opacity="0.28" />
  <rect x="910" y="330" width="110" height="34" rx="12" fill="#22d3ee" opacity="0.4" />
</svg>
