<svg xmlns="http://www.w3.org/2000/svg" xmlns:xlink="http://www.w3.org/1999/xlink" width="500" zoomAndPan="magnify" viewBox="0 0 375 374.999991" height="500" preserveAspectRatio="xMidYMid meet" version="1.0"><defs><g/><clipPath id="cd187f79be"><rect x="0" width="285" y="0" height="121"/></clipPath></defs><g transform="matrix(1, 0, 0, 1, 52, 139)"><g clip-path="url(#cd187f79be)"><g fill="#ffd21f" fill-opacity="1"><g transform="translate(0.748519, 78.230073)"><g><path d="M 2.578125 0 L 2.578125 -58.171875 L 14.15625 -58.171875 L 14.15625 -37.375 L 19.640625 -37.375 L 19.640625 -58.171875 L 31.21875 -58.171875 L 31.21875 0 L 19.640625 0 L 19.640625 -26.40625 L 14.15625 -26.40625 L 14.15625 0 Z M 2.578125 0 "/></g></g></g><g fill="#ffd21f" fill-opacity="1"><g transform="translate(34.541786, 78.230073)"><g><path d="M 1.015625 0 L 6.640625 -58.171875 L 26.34375 -58.171875 L 31.890625 0 L 20.859375 0 L 20.046875 -9.40625 L 13 -9.40625 L 12.328125 0 Z M 13.875 -18.6875 L 19.171875 -18.6875 L 16.59375 -48.28125 L 16.046875 -48.28125 Z M 13.875 -18.6875 "/></g></g></g><g fill="#ffd21f" fill-opacity="1"><g transform="translate(67.386958, 78.230073)"><g><path d="M 2.578125 0 L 2.578125 -58.171875 L 14.5625 -58.171875 L 19.90625 -30.34375 L 19.90625 -58.171875 L 31.15625 -58.171875 L 31.15625 0 L 19.78125 0 L 13.953125 -29.125 L 13.953125 0 Z M 2.578125 0 "/></g></g></g><g fill="#ffd21f" fill-opacity="1"><g transform="translate(101.112502, 78.230073)"><g><path d="M 2.578125 -58.171875 L 18.625 -58.171875 C 22.78125 -58.171875 25.894531 -57.019531 27.96875 -54.71875 C 30.039062 -52.414062 31.101562 -49.003906 31.15625 -44.484375 L 31.28125 -17.265625 C 31.332031 -11.535156 30.34375 -7.222656 28.3125 -4.328125 C 26.28125 -1.441406 22.914062 0 18.21875 0 L 2.578125 0 Z M 16.3125 -10.296875 C 18.4375 -10.296875 19.5 -11.332031 19.5 -13.40625 L 19.5 -43.40625 C 19.5 -44.71875 19.394531 -45.695312 19.1875 -46.34375 C 18.988281 -47 18.617188 -47.441406 18.078125 -47.671875 C 17.535156 -47.898438 16.703125 -48.015625 15.578125 -48.015625 L 14.28125 -48.015625 L 14.28125 -10.296875 Z M 16.3125 -10.296875 "/></g></g></g><g fill="#ffd21f" fill-opacity="1"><g transform="translate(134.499446, 78.230073)"><g><path d="M 9.609375 0 L 9.609375 -19.171875 L 0.34375 -58.171875 L 11.84375 -58.171875 L 15.09375 -38.46875 L 18.359375 -58.171875 L 29.859375 -58.171875 L 20.59375 -19.171875 L 20.59375 0 Z M 9.609375 0 "/></g></g></g><g fill="#ffd21f" fill-opacity="1"><g transform="translate(164.703449, 78.230073)"><g><path d="M 2.578125 0 L 2.578125 -58.171875 L 20.3125 -58.171875 L 25.1875 -22.6875 L 30.0625 -58.171875 L 47.9375 -58.171875 L 47.9375 0 L 37.3125 0 L 37.3125 -41.921875 L 30.609375 0 L 20.1875 0 L 13.0625 -41.921875 L 13.0625 0 Z M 2.578125 0 "/></g></g></g><g fill="#ffd21f" fill-opacity="1"><g transform="translate(215.22405, 78.230073)"><g><path d="M 1.015625 0 L 6.640625 -58.171875 L 26.34375 -58.171875 L 31.890625 0 L 20.859375 0 L 20.046875 -9.40625 L 13 -9.40625 L 12.328125 0 Z M 13.875 -18.6875 L 19.171875 -18.6875 L 16.59375 -48.28125 L 16.046875 -48.28125 Z M 13.875 -18.6875 "/></g></g></g><g fill="#ffd21f" fill-opacity="1"><g transform="translate(248.069222, 78.230073)"><g><path d="M 2.578125 0 L 2.578125 -58.171875 L 14.5625 -58.171875 L 19.90625 -30.34375 L 19.90625 -58.171875 L 31.15625 -58.171875 L 31.15625 0 L 19.78125 0 L 13.953125 -29.125 L 13.953125 0 Z M 2.578125 0 "/></g></g></g><g fill="#ffd21f" fill-opacity="1"><g transform="translate(96.69526, 108.540044)"><g><path d="M 8.984375 -27.15625 C 11.640625 -27.15625 13.660156 -26.519531 15.046875 -25.25 C 16.441406 -23.988281 17.140625 -21.941406 17.140625 -19.109375 L 17.140625 -7.484375 C 17.140625 -4.679688 16.445312 -2.640625 15.0625 -1.359375 C 13.6875 -0.078125 11.660156 0.5625 8.984375 0.5625 C 6.296875 0.5625 4.257812 -0.0625 2.875 -1.3125 C 1.5 -2.570312 0.8125 -4.628906 0.8125 -7.484375 L 0.8125 -19.109375 C 0.8125 -21.910156 1.5 -23.953125 2.875 -25.234375 C 4.257812 -26.515625 6.296875 -27.15625 8.984375 -27.15625 Z M 7.671875 -21.046875 L 7.671875 -5.546875 C 7.671875 -5.023438 7.78125 -4.617188 8 -4.328125 C 8.226562 -4.046875 8.554688 -3.90625 8.984375 -3.90625 C 9.398438 -3.90625 9.71875 -4.046875 9.9375 -4.328125 C 10.164062 -4.617188 10.28125 -5.023438 10.28125 -5.546875 L 10.28125 -21.046875 C 10.28125 -21.566406 10.164062 -21.96875 9.9375 -22.25 C 9.71875 -22.539062 9.398438 -22.6875 8.984375 -22.6875 C 8.109375 -22.6875 7.671875 -22.140625 7.671875 -21.046875 Z M 7.671875 -21.046875 "/></g></g></g><g fill="#ffd21f" fill-opacity="1"><g transform="translate(114.646951, 108.540044)"><g><path d="M 12.359375 -21.234375 L 7.671875 -21.234375 L 7.671875 -16.359375 L 11.703125 -16.359375 L 11.703125 -11.21875 L 7.671875 -11.21875 L 7.671875 0 L 0.8125 0 L 0.8125 -26.59375 L 12.359375 -26.59375 Z M 12.359375 -21.234375 "/></g></g></g><g fill="#ffd21f" fill-opacity="1"><g transform="translate(127.049263, 108.540044)"><g/></g></g><g fill="#ffd21f" fill-opacity="1"><g transform="translate(135.987855, 108.540044)"><g><path d="M 8.015625 -27.15625 C 13.054688 -27.15625 15.578125 -25.253906 15.578125 -21.453125 L 15.578125 -18.8125 L 9.421875 -18.8125 L 9.421875 -21.125 C 9.421875 -22.3125 8.972656 -22.90625 8.078125 -22.90625 C 7.304688 -22.90625 6.921875 -22.359375 6.921875 -21.265625 L 6.921875 -19.921875 C 6.921875 -19.429688 7.09375 -18.96875 7.4375 -18.53125 C 7.789062 -18.09375 8.164062 -17.738281 8.5625 -17.46875 C 8.957031 -17.195312 9.59375 -16.800781 10.46875 -16.28125 C 11.53125 -15.632812 12.441406 -15 13.203125 -14.375 C 13.960938 -13.757812 14.617188 -12.957031 15.171875 -11.96875 C 15.734375 -10.988281 16.015625 -9.832031 16.015625 -8.5 L 16.015625 -6.109375 C 16.015625 -3.597656 15.300781 -1.859375 13.875 -0.890625 C 12.445312 0.078125 10.492188 0.5625 8.015625 0.5625 C 5.273438 0.5625 3.347656 0.015625 2.234375 -1.078125 C 1.117188 -2.171875 0.5625 -3.859375 0.5625 -6.140625 L 0.5625 -9.6875 L 6.96875 -9.6875 L 6.96875 -5.296875 C 6.96875 -4.222656 7.351562 -3.6875 8.125 -3.6875 C 8.539062 -3.6875 8.851562 -3.851562 9.0625 -4.1875 C 9.28125 -4.519531 9.390625 -5.085938 9.390625 -5.890625 L 9.390625 -7.296875 C 9.390625 -7.972656 9.207031 -8.570312 8.84375 -9.09375 C 8.488281 -9.613281 8.09375 -10.035156 7.65625 -10.359375 C 7.21875 -10.679688 6.601562 -11.085938 5.8125 -11.578125 C 4.738281 -12.222656 3.847656 -12.832031 3.140625 -13.40625 C 2.441406 -13.976562 1.828125 -14.722656 1.296875 -15.640625 C 0.773438 -16.554688 0.515625 -17.648438 0.515625 -18.921875 L 0.515625 -20.71875 C 0.515625 -25.007812 3.015625 -27.15625 8.015625 -27.15625 Z M 8.015625 -27.15625 "/></g></g></g><g fill="#ffd21f" fill-opacity="1"><g transform="translate(152.524264, 108.540044)"><g><path d="M 8.984375 -27.15625 C 11.640625 -27.15625 13.660156 -26.519531 15.046875 -25.25 C 16.441406 -23.988281 17.140625 -21.941406 17.140625 -19.109375 L 17.140625 -7.484375 C 17.140625 -4.679688 16.445312 -2.640625 15.0625 -1.359375 C 13.6875 -0.078125 11.660156 0.5625 8.984375 0.5625 C 6.296875 0.5625 4.257812 -0.0625 2.875 -1.3125 C 1.5 -2.570312 0.8125 -4.628906 0.8125 -7.484375 L 0.8125 -19.109375 C 0.8125 -21.910156 1.5 -23.953125 2.875 -25.234375 C 4.257812 -26.515625 6.296875 -27.15625 8.984375 -27.15625 Z M 7.671875 -21.046875 L 7.671875 -5.546875 C 7.671875 -5.023438 7.78125 -4.617188 8 -4.328125 C 8.226562 -4.046875 8.554688 -3.90625 8.984375 -3.90625 C 9.398438 -3.90625 9.71875 -4.046875 9.9375 -4.328125 C 10.164062 -4.617188 10.28125 -5.023438 10.28125 -5.546875 L 10.28125 -21.046875 C 10.28125 -21.566406 10.164062 -21.96875 9.9375 -22.25 C 9.71875 -22.539062 9.398438 -22.6875 8.984375 -22.6875 C 8.109375 -22.6875 7.671875 -22.140625 7.671875 -21.046875 Z M 7.671875 -21.046875 "/></g></g></g><g fill="#ffd21f" fill-opacity="1"><g transform="translate(170.475955, 108.540044)"><g><path d="M 7.671875 -6.140625 C 7.671875 -5.328125 7.796875 -4.789062 8.046875 -4.53125 C 8.296875 -4.269531 8.609375 -4.140625 8.984375 -4.140625 C 9.347656 -4.140625 9.65625 -4.269531 9.90625 -4.53125 C 10.15625 -4.789062 10.28125 -5.328125 10.28125 -6.140625 L 10.28125 -26.59375 L 17.140625 -26.59375 L 17.140625 -7.109375 C 17.140625 -1.992188 14.421875 0.5625 8.984375 0.5625 C 3.535156 0.5625 0.8125 -1.992188 0.8125 -7.109375 L 0.8125 -26.59375 L 7.671875 -26.59375 Z M 7.671875 -6.140625 "/></g></g></g><g fill="#ffd21f" fill-opacity="1"><g transform="translate(188.427646, 108.540044)"><g><path d="M 15.046875 -21.234375 L 10.984375 -21.234375 L 10.984375 0 L 4.140625 0 L 4.140625 -21.234375 L 0.078125 -21.234375 L 0.078125 -26.59375 L 15.046875 -26.59375 Z M 15.046875 -21.234375 "/></g></g></g><g fill="#ffd21f" fill-opacity="1"><g transform="translate(203.548773, 108.540044)"><g><path d="M 7.671875 -16.953125 L 10.28125 -16.953125 L 10.28125 -26.59375 L 17.140625 -26.59375 L 17.140625 0 L 10.28125 0 L 10.28125 -11.140625 L 7.671875 -11.140625 L 7.671875 0 L 0.8125 0 L 0.8125 -26.59375 L 7.671875 -26.59375 Z M 7.671875 -16.953125 "/></g></g></g><g fill="#ffd21f" fill-opacity="1"><g transform="translate(221.500464, 108.540044)"><g><path d="M 7.671875 -5.140625 L 12.21875 -5.140625 L 12.21875 0 L 0.8125 0 L 0.8125 -26.59375 L 7.671875 -26.59375 Z M 7.671875 -5.140625 "/></g></g></g><g fill="#ffd21f" fill-opacity="1"><g transform="translate(233.902775, 108.540044)"><g><path d="M 17.0625 0 L 10.203125 0 L 9.875 -4.6875 L 7.375 -4.6875 L 7.046875 0 L 0.1875 0 L 3.53125 -26.59375 L 13.40625 -26.59375 Z M 7.375 -9.390625 L 9.765625 -9.390625 L 8.5625 -21.90625 L 8.5 -21.90625 Z M 7.375 -9.390625 "/></g></g></g><g fill="#ffd21f" fill-opacity="1"><g transform="translate(251.146825, 108.540044)"><g><path d="M 7.453125 -16.171875 L 7.53125 -16.171875 L 10.609375 -26.59375 L 17.140625 -26.59375 L 13.109375 -14.78125 L 17.6875 0 L 10.390625 0 L 7.53125 -11.703125 L 7.453125 -11.703125 L 7.453125 0 L 0.8125 0 L 0.8125 -26.59375 L 7.453125 -26.59375 Z M 7.453125 -16.171875 "/></g></g></g><g fill="#ffd21f" fill-opacity="1"><g transform="translate(268.390875, 108.540044)"><g><path d="M 12.40625 -21.234375 L 7.671875 -21.234375 L 7.671875 -16.359375 L 12.109375 -16.359375 L 12.109375 -11.21875 L 7.671875 -11.21875 L 7.671875 -5.359375 L 12.78125 -5.359375 L 12.78125 0 L 0.8125 0 L 0.8125 -26.59375 L 12.40625 -26.59375 Z M 12.40625 -21.234375 "/></g></g></g></g></g></svg>